<?xml version="1.0"?>
<svg xmlns="http://www.w3.org/2000/svg" xmlns:xlink="http://www.w3.org/1999/xlink" xmlns:svgjs="http://svgjs.com/svgjs" version="1.1" width="512" height="512" x="0" y="0" viewBox="0 0 64 64" style="enable-background:new 0 0 512 512" xml:space="preserve" class=""><g><g xmlns="http://www.w3.org/2000/svg"><path d="m35.972 37c-1.736-2.304-4.115-4.087-6.874-5.089 1.038 1.327 1.908 3.066 2.566 5.089z" fill="#fbbd19" data-original="#000000" style="" class=""/><path d="m24 31c-2.232 0-4.254 2.387-5.546 6h11.093c-1.293-3.613-3.315-6-5.547-6z" fill="#fbbd19" data-original="#000000" style="" class=""/><path d="m17.841 53h12.319c.462-1.821.746-3.858.816-6h-13.952c.07 2.142.355 4.179.817 6z" fill="#fbbd19" data-original="#000000" style="" class=""/><path d="m12.028 37h4.308c.658-2.023 1.528-3.762 2.566-5.089-2.759 1.002-5.137 2.785-6.874 5.089z" fill="#fbbd19" data-original="#000000" style="" class=""/><path d="m31.5 9h25.5v-5c0-.551-.449-1-1-1h-52c-.551 0-1 .449-1 1v9h25.5zm-21.5 1h-4v-4h4zm8 0h-4v-4h4zm8 0h-4v-4h4z" fill="#fbbd19" data-original="#000000" style="" class=""/><path d="m9.051 45h5.975c.063-2.139.322-4.16.752-6h-5.034c-.961 1.812-1.55 3.845-1.693 6z" fill="#fbbd19" data-original="#000000" style="" class=""/><path d="m15.026 47h-5.975c.143 2.155.732 4.188 1.693 6h5.034c-.43-1.84-.689-3.861-.752-6z" fill="#fbbd19" data-original="#000000" style="" class=""/><path d="m30.159 39h-12.318c-.462 1.821-.746 3.858-.816 6h13.951c-.07-2.142-.355-4.179-.817-6z" fill="#fbbd19" data-original="#000000" style="" class=""/><path d="m32.222 39c.43 1.84.689 3.861.752 6h5.975c-.143-2.155-.732-4.188-1.693-6z" fill="#fbbd19" data-original="#000000" style="" class=""/><path d="m32.222 53h5.034c.961-1.812 1.55-3.845 1.693-6h-5.975c-.063 2.139-.322 4.16-.752 6z" fill="#fbbd19" data-original="#000000" style="" class=""/><path d="m12.028 55c1.736 2.304 4.115 4.087 6.874 5.089-1.038-1.327-1.908-3.066-2.566-5.089z" fill="#fbbd19" data-original="#000000" style="" class=""/><path d="m60.587 25.933c.263-.239.413-.579.413-.933s-.15-.694-.413-.933l-8.587-7.807v2.74h-43v-2h41v-5.26l7 6.363v-7.103h-24.5l-3 4h-26.5v2 2 23c0 .552.449 1 1 1h3.281c1.423-7.946 8.37-14 16.719-14s15.296 6.054 16.719 14h15.281c.551 0 1-.448 1-1v-10.103l-7 6.364v-5.261h-14v-2h16v2.739zm-53.587-6.933h-2v-2h2z" fill="#fbbd19" data-original="#000000" style="" class=""/><path d="m29.098 60.089c2.759-1.002 5.137-2.785 6.874-5.089h-4.308c-.658 2.023-1.528 3.762-2.566 5.089z" fill="#fbbd19" data-original="#000000" style="" class=""/><path d="m18.454 55c1.292 3.613 3.314 6 5.546 6s4.254-2.387 5.546-6z" fill="#fbbd19" data-original="#000000" style="" class=""/></g></g></svg>
