<?xml version="1.0" encoding="UTF-8" standalone="no"?>
<svg
   xmlns:dc="http://purl.org/dc/elements/1.1/"
   xmlns:cc="http://creativecommons.org/ns#"
   xmlns:rdf="http://www.w3.org/1999/02/22-rdf-syntax-ns#"
   xmlns:svg="http://www.w3.org/2000/svg"
   xmlns="http://www.w3.org/2000/svg"
   width="210mm"
   height="297mm"
   viewBox="0 0 210 297"
   version="1.1"
   id="svg8">
  <defs
     id="defs2" />
  <metadata
     id="metadata5">
    <rdf:RDF>
      <cc:Work
         rdf:about="">
        <dc:format>image/svg+xml</dc:format>
        <dc:type
           rdf:resource="http://purl.org/dc/dcmitype/StillImage" />
        <dc:title></dc:title>
      </cc:Work>
    </rdf:RDF>
  </metadata>
  <g
     id="layer1">
    <g
       id="g839"
       transform="matrix(0.26458333,0,0,0.26458333,-18.974404,123.14464)">
      <g
         id="g855"
         transform="translate(221.42857,-30)">
        <path
           d="M 416,50 C 416,22.43 393.57,0 366,0 300.322,0 217.987,0 146,0 118.43,0 96,22.43 96,50 v 412 c 0,27.57 22.43,50 50,50 h 220 c 27.57,0 50,-22.43 50,-50 z m -20,412 c 0,16.542 -13.458,30 -30,30 H 146 c -16.542,0 -30,-13.458 -30,-30 V 50 c 0,-16.542 13.458,-30 30,-30 h 70 c 0,22.056 17.944,40 40,40 22.056,0 40,-17.944 40,-40 h 70 c 16.542,0 30,13.458 30,30 z"
           id="path833" />
        <path
           d="m 256,246 c -11.028,0 -20,-8.972 -20,-20 0,-11.028 8.972,-20 20,-20 8.1,0 15.35,4.83 18.469,12.306 2.127,5.097 7.982,7.504 13.08,5.377 5.097,-2.127 7.504,-7.983 5.377,-13.08 C 288.011,198.826 277.961,190.357 266,187.285 V 176 c 0,-5.522 -4.477,-10 -10,-10 -5.523,0 -10,4.478 -10,10 v 11.266 c -17.233,4.452 -30,20.13 -30,38.734 0,22.056 17.944,40 40,40 11.028,0 20,8.972 20,20 0,11.028 -8.972,20 -20,20 -8.1,0 -15.35,-4.83 -18.469,-12.306 -2.127,-5.097 -7.983,-7.505 -13.08,-5.377 -5.097,2.127 -7.504,7.983 -5.377,13.08 4.915,11.777 14.965,20.246 26.926,23.318 V 336 c 0,5.522 4.477,10 10,10 5.523,0 10,-4.478 10,-10 v -11.266 c 17.233,-4.452 30,-20.13 30,-38.734 0,-22.056 -17.944,-40 -40,-40 z"
           id="path835"
           style="fill:#f55e2b;fill-opacity:1" />
        <path
           d="m 286,432 h -60 c -5.523,0 -10,4.478 -10,10 0,5.522 4.477,10 10,10 h 60 c 5.523,0 10,-4.478 10,-10 0,-5.522 -4.477,-10 -10,-10 z"
           id="path837" />
      </g>
    </g>
  </g>
</svg>
