<?xml version="1.0" encoding="UTF-8" standalone="no"?>
<svg
   xmlns:dc="http://purl.org/dc/elements/1.1/"
   xmlns:cc="http://creativecommons.org/ns#"
   xmlns:rdf="http://www.w3.org/1999/02/22-rdf-syntax-ns#"
   xmlns:svg="http://www.w3.org/2000/svg"
   xmlns="http://www.w3.org/2000/svg"
   id="svg8"
   version="1.1"
   viewBox="0 0 135.46668 135.46668"
   height="135.46667mm"
   width="135.46667mm">
  <defs
     id="defs2" />
  <metadata
     id="metadata5">
    <rdf:RDF>
      <cc:Work
         rdf:about="">
        <dc:format>image/svg+xml</dc:format>
        <dc:type
           rdf:resource="http://purl.org/dc/dcmitype/StillImage" />
        <dc:title></dc:title>
      </cc:Work>
    </rdf:RDF>
  </metadata>
  <g
     transform="translate(142.55453,-77.562604)"
     id="layer1">
    <g
       style="fill:#d40000"
       transform="matrix(0.24579803,0,0,0.24579803,-142.55453,77.562604)"
       id="g908">
      <path
         style="fill:#d40000"
         d="M 275.565,0 C 123.621,0 0,123.621 0,275.565 0,427.509 123.621,551.13 275.565,551.13 427.509,551.13 551.13,427.509 551.13,275.565 551.13,123.621 427.509,0 275.565,0 Z m 0,516.685 c -132.955,0 -241.119,-108.164 -241.119,-241.119 0,-132.955 108.164,-241.12 241.119,-241.12 132.955,0 241.12,108.164 241.12,241.119 0,132.955 -108.165,241.12 -241.12,241.12 z"
         id="path895" />
      <path
         style="fill:#d40000"
         d="m 360.821,165.955 -85.256,85.256 -85.256,-85.256 -24.354,24.354 85.256,85.256 -85.256,85.256 24.354,24.354 85.256,-85.256 85.256,85.256 24.354,-24.354 -85.256,-85.256 85.256,-85.256 z"
         id="path897" />
    </g>
  </g>
</svg>
